<svg width="378" height="152" viewBox="0 0 378 152" fill="none" xmlns="http://www.w3.org/2000/svg">
<g clip-path="url(#clip0_7_47)">
<path d="M156.17 94.83C150.65 87.69 147.35 78.76 147.35 69.06C147.35 45.78 166.29 26.85 189.56 26.85C212.83 26.85 231.77 45.79 231.77 69.06C231.77 78.76 228.47 87.7 222.95 94.83H253.61C256.83 86.86 258.6 78.16 258.6 69.06C258.62 30.98 227.64 0 189.57 0C151.5 0 120.52 30.98 120.52 69.05C120.52 78.16 122.3 86.86 125.51 94.82H156.17V94.83Z" fill="#00EDE1"/>
<path d="M354.71 134.33L342.03 106.11H353.1L359.92 124.9L366.67 106.11H377.74L365.06 134.33V151.12H354.7V134.33H354.71Z" fill="#190051"/>
<path d="M94.46 106.11C96.79 106.11 98.94 106.5 100.89 107.29C102.84 108.08 104.53 109.17 105.96 110.58C107.39 111.99 108.51 113.62 109.32 115.47C110.13 117.33 110.53 119.33 110.53 121.47C110.53 123.61 110.12 125.61 109.32 127.47C108.51 129.33 107.39 130.96 105.96 132.36C104.53 133.77 102.84 134.86 100.89 135.65C98.94 136.44 96.79 136.83 94.46 136.83H90.61V151.12H80.25V106.12H94.45L94.46 106.11ZM94.46 126.83C96.08 126.83 97.44 126.29 98.53 125.22C99.62 124.15 100.17 122.9 100.17 121.47C100.17 120.04 99.62 118.79 98.53 117.72C97.43 116.65 96.08 116.11 94.46 116.11H90.61V126.82H94.46V126.83Z" fill="#190051"/>
<path d="M61.34 106.11C63.67 106.11 65.82 106.5 67.77 107.29C69.72 108.08 71.41 109.17 72.84 110.58C74.27 111.99 75.39 113.62 76.2 115.47C77.01 117.33 77.41 119.33 77.41 121.47C77.41 123.61 77 125.61 76.2 127.47C75.39 129.33 74.27 130.96 72.84 132.36C71.41 133.77 69.72 134.86 67.77 135.65C65.82 136.44 63.67 136.83 61.34 136.83H57.49V151.12H47.13V106.12H61.33L61.34 106.11ZM61.34 126.83C62.96 126.83 64.32 126.29 65.41 125.22C66.5 124.15 67.05 122.9 67.05 121.47C67.05 120.04 66.5 118.79 65.41 117.72C64.31 116.65 62.96 116.11 61.34 116.11H57.49V126.82H61.34V126.83Z" fill="#190051"/>
<path d="M156.57 128.62C156.57 131.86 155.99 134.86 154.82 137.62C153.65 140.38 152.07 142.8 150.07 144.87C148.07 146.94 145.72 148.56 143.03 149.73C140.34 150.9 137.47 151.48 134.42 151.48C131.37 151.48 128.5 150.9 125.81 149.73C123.12 148.56 120.77 146.94 118.77 144.87C116.77 142.8 115.19 140.38 114.02 137.62C112.85 134.86 112.27 131.86 112.27 128.62C112.27 125.38 112.85 122.44 114.02 119.66C115.19 116.87 116.77 114.45 118.77 112.37C120.77 110.29 123.12 108.68 125.81 107.51C128.5 106.34 131.37 105.76 134.42 105.76C137.47 105.76 140.34 106.34 143.03 107.51C145.72 108.68 148.07 110.3 150.07 112.37C152.07 114.44 153.65 116.87 154.82 119.66C155.99 122.45 156.57 125.43 156.57 128.62ZM146.22 128.62C146.22 126.76 145.91 125.05 145.29 123.48C144.67 121.91 143.83 120.55 142.75 119.41C141.68 118.27 140.43 117.37 139 116.73C137.57 116.09 136.05 115.77 134.43 115.77C132.81 115.77 131.29 116.09 129.86 116.73C128.43 117.37 127.18 118.27 126.11 119.41C125.04 120.55 124.19 121.91 123.57 123.48C122.95 125.05 122.64 126.77 122.64 128.62C122.64 130.47 122.95 132.19 123.57 133.76C124.19 135.33 125.03 136.69 126.11 137.83C127.18 138.97 128.43 139.87 129.86 140.51C131.29 141.15 132.81 141.47 134.43 141.47C136.05 141.47 137.57 141.15 139 140.51C140.43 139.87 141.68 138.97 142.75 137.83C143.82 136.69 144.67 135.33 145.29 133.76C145.91 132.19 146.22 130.47 146.22 128.62Z" fill="#190051"/>
<path d="M44.29 128.62C44.29 131.86 43.71 134.86 42.54 137.62C41.37 140.38 39.79 142.8 37.79 144.87C35.79 146.94 33.44 148.56 30.75 149.73C28.06 150.9 25.19 151.48 22.14 151.48C19.09 151.48 16.22 150.9 13.53 149.73C10.84 148.56 8.48999 146.94 6.48999 144.87C4.48999 142.8 2.90999 140.38 1.73999 137.62C0.56999 134.86 -0.0100098 131.86 -0.0100098 128.62C-0.0100098 125.38 0.56999 122.44 1.73999 119.66C2.90999 116.87 4.48999 114.45 6.48999 112.37C8.48999 110.29 10.84 108.68 13.53 107.51C16.22 106.34 19.09 105.76 22.14 105.76C25.19 105.76 28.06 106.34 30.75 107.51C33.44 108.68 35.79 110.3 37.79 112.37C39.79 114.44 41.37 116.87 42.54 119.66C43.71 122.45 44.29 125.43 44.29 128.62ZM33.93 128.62C33.93 126.76 33.62 125.05 33 123.48C32.38 121.91 31.54 120.55 30.46 119.41C29.39 118.27 28.14 117.37 26.71 116.73C25.28 116.09 23.76 115.77 22.14 115.77C20.52 115.77 19 116.09 17.57 116.73C16.14 117.37 14.89 118.27 13.82 119.41C12.75 120.55 11.9 121.91 11.28 123.48C10.66 125.05 10.35 126.77 10.35 128.62C10.35 130.47 10.66 132.19 11.28 133.76C11.9 135.33 12.74 136.69 13.82 137.83C14.89 138.97 16.14 139.87 17.57 140.51C19 141.15 20.52 141.47 22.14 141.47C23.76 141.47 25.28 141.15 26.71 140.51C28.14 139.87 29.39 138.97 30.46 137.83C31.53 136.69 32.38 135.33 33 133.76C33.62 132.19 33.93 130.47 33.93 128.62Z" fill="#190051"/>
<path d="M174.42 106.11C176.75 106.11 178.88 106.49 180.81 107.25C182.74 108.01 184.39 109.04 185.77 110.32C187.15 111.61 188.22 113.12 188.98 114.86C189.74 116.6 190.12 118.44 190.12 120.4C190.12 122.92 189.68 125.04 188.8 126.76C187.92 128.47 186.94 129.87 185.87 130.94C184.8 132.01 183.36 133.02 181.55 133.98L191.55 151.12H180.12L171.91 136.12H170.4V151.12H160.04V106.12H174.41L174.42 106.11ZM174.42 126.12C176.23 126.12 177.63 125.64 178.63 124.69C179.63 123.74 180.13 122.55 180.13 121.12C180.13 119.69 179.63 118.5 178.63 117.55C177.63 116.6 176.22 116.12 174.42 116.12H170.41V126.12H174.42Z" fill="#190051"/>
<path d="M234.68 106.11V132.9C234.68 135.61 235.35 137.72 236.7 139.22C238.05 140.72 239.64 141.47 241.64 141.47C243.95 141.47 245.23 140.72 246.58 139.22C247.93 137.72 248.6 135.61 248.6 132.9V106.11H258.62V132.9C258.62 135.66 258.21 138.19 257.38 140.47C256.55 142.76 255.4 144.71 253.92 146.33C252.44 147.95 250.66 149.21 248.57 150.12C246.48 151.02 244.17 151.48 241.65 151.48C239.13 151.48 236.82 151.03 234.73 150.12C232.64 149.22 230.85 147.95 229.38 146.33C227.9 144.71 226.75 142.76 225.92 140.47C225.09 138.18 224.68 135.66 224.68 132.9V106.11H234.7H234.68Z" fill="#190051"/>
<path d="M295.81 106.11V151.11H286.52L273.8 126.88V151.11H263.44V106.11H272.73L285.45 130.34V106.11H295.81Z" fill="#190051"/>
<path d="M311.69 151.12H301.33V106.12H311.69V151.12Z" fill="#190051"/>
<path d="M334.65 151.12H324.29V116.12H314.73V106.12H338.72L343.37 116.12H334.65V151.12Z" fill="#190051"/>
<path d="M212.03 151.12H201.67V116.12H192.11V106.12H221.59V116.12H212.03V151.12Z" fill="#190051"/>
</g>
<defs>
<clipPath id="clip0_7_47">
<rect width="377.74" height="151.47" fill="white"/>
</clipPath>
</defs>
</svg>
